<svg width="24" height="22" viewBox="0 0 24 22" fill="none" xmlns="http://www.w3.org/2000/svg">
    <path d="M14.7182 21.8126V19.7459C16.6412 19.134 18.1904 18.0229 19.3656 16.4126C20.5408 14.8024 
    21.1284 12.987 21.1284 10.9665C21.1284 8.94595 20.5408 7.13057 19.3656 5.52033C18.1904 
    3.91006 16.6412 2.79895 14.7182 2.187V0.120361C17.2002 0.785317 19.2224 2.11779 20.7848 
    4.11779C22.3471 6.11777 23.1283 8.40066 23.1283 10.9665C23.1283 13.5323 22.3471 15.8152 
    
    20.7848 17.8151C19.2224 19.8151 17.2002 21.1476 14.7182 21.8126ZM0.87207 14.3331V7.66649H5.82074L11.5386
    1.94863V20.051L5.82074 14.3331H0.87207ZM14.7182 15.8716V6.06136C15.6173 6.55025 16.3122 7.23871 16.8027 
    8.12673C17.2933 9.01477 17.5386 9.97246 17.5386 10.9998C17.5386 12.0135 17.2912 12.9566 16.7963 
    13.8293C16.3015 14.7019 15.6087 15.3827 14.7182 15.8716ZM9.53867 6.79979L6.672 9.66646H2.872V12.3331H6.672L9.53867 15.1998V6.79979Z" fill="white" fill-opacity="0.5"/>
</svg>
    