<svg width="40" height="40" viewBox="0 0 40 40" fill="none" xmlns="http://www.w3.org/2000/svg">
    <mask id="mask0_5_495" style="mask-type:alpha" maskUnits="userSpaceOnUse" x="0" y="0" width="40" height="40">
    <rect width="40" height="40" fill="#D9D9D9"/>
    </mask>
    <g mask="url(#mask0_5_495)">
    <path d="M15.8333 27.4999L27.4999 19.9999L15.8333 12.4999V27.4999ZM19.9999 36.6666C17.6944 36.6666 15.5277 36.2291 13.4999 35.3541C11.4721 34.4791 9.70825 33.2916 8.20825 31.7916C6.70825 30.2916 5.52075 28.5277 4.64575 26.4999C3.77075 24.4721 3.33325 22.3055 3.33325 19.9999C3.33325 17.6944 3.77075 15.5277 4.64575 13.4999C5.52075 11.4721 6.70825 9.70825 8.20825 8.20825C9.70825 6.70825 11.4721 5.52075 13.4999 4.64575C15.5277 3.77075 17.6944 3.33325 19.9999 3.33325C22.3055 3.33325 24.4721 3.77075 26.4999 4.64575C28.5277 5.52075 30.2916 6.70825 31.7916 8.20825C33.2916 9.70825 34.4791 11.4721 35.3541 13.4999C36.2291 15.5277 36.6666 17.6944 36.6666 19.9999C36.6666 22.3055 36.2291 24.4721 35.3541 26.4999C34.4791 28.5277 33.2916 30.2916 31.7916 31.7916C30.2916 33.2916 28.5277 34.4791 26.4999 35.3541C24.4721 36.2291 22.3055 36.6666 19.9999 36.6666Z" fill="white" fill-opacity="0.4"/>
    </g>
</svg>
    